<svg id="Layer_1" data-name="Layer 1" xmlns="http://www.w3.org/2000/svg" viewBox="0 0 432 432"><defs><style>.cls-1{fill:#fff;}</style></defs><title>Quest_SVG</title><path class="cls-1" d="M432,28.85V403.13c0,12.84-10.66,23.23-23.84,23.23H298.08V263.43h56.16l8.4-63.49H298.08V159.4c0-18.38,5.25-30.91,32.31-30.91l34.53,0V71.66a479.17,479.17,0,0,0-50.31-2.49c-49.78,0-83.86,29.6-83.86,83.93v46.84H174.45v63.49h56.29V426.36H23.83C10.65,426.36,0,416,0,403.13V28.85C0,16,10.65,5.64,23.83,5.64H408.16C421.34,5.64,432,16,432,28.85"/></svg>