<svg id="Layer_1" data-name="Layer 1" xmlns="http://www.w3.org/2000/svg" viewBox="0 0 432 432"><defs><style>.cls-1{fill:#fff;}</style></defs><title>Quest_SVG</title><path class="cls-1" d="M181,39.56c80.8,0,145.93,63.49,145.93,142.27S261.76,324.12,181,324.12,35,260.63,35,181.83,100.16,39.56,181,39.56m0-34.15C81.24,5.42,0,84.6,0,181.83S81.24,358.27,181,358.27A183.15,183.15,0,0,0,295.9,317.9L402.06,421.57a17.84,17.84,0,0,0,24.8,0,16.79,16.79,0,0,0,0-24.18L320.51,293.89c25.8-30.51,41.41-69.56,41.41-112C361.92,84.6,280.69,5.42,181,5.42Z"/></svg>