<svg id="Layer_1" data-name="Layer 1" xmlns="http://www.w3.org/2000/svg" viewBox="0 0 432 432"><defs><style>.cls-1{fill:#fff;}</style></defs><title>Quest_SVG</title><path class="cls-1" d="M387.75,127.9q.34,5.74.34,11.48c0,117.09-89.17,252.2-252.2,252.2A250.1,250.1,0,0,1,0,351.72,185.66,185.66,0,0,0,21.16,353a177.8,177.8,0,0,0,110-37.94,88.64,88.64,0,0,1-82.75-61.59,81,81,0,0,0,16.66,1.69A88.2,88.2,0,0,0,88.38,252,88.86,88.86,0,0,1,17.23,165v-1.12a88.59,88.59,0,0,0,40.2,11A88.66,88.66,0,0,1,30.06,56.63a251.19,251.19,0,0,0,182.62,92.55A90.4,90.4,0,0,1,210.42,129,88.73,88.73,0,0,1,363.77,68.34a175.16,175.16,0,0,0,56.29-21.5,89.53,89.53,0,0,1-39,49.08A176.73,176.73,0,0,0,432,82a177,177,0,0,1-44.25,45.94"/></svg>