<svg id="Layer_1" data-name="Layer 1" xmlns="http://www.w3.org/2000/svg" viewBox="0 0 432 432"><defs><style>.cls-1{fill:#fff;}</style></defs><title>Quest_SVG</title><path class="cls-1" d="M331.89,6.1H100.11C44.84,6.1,0,49.62,0,103.36V328.64c0,53.74,44.84,97.26,100.11,97.26H331.89c55.28,0,100.11-43.52,100.11-97.26V103.36C432,49.62,387.16,6.1,331.89,6.1ZM215.94,309.63c-53.63,0-97.15-42-97.15-93.63s43.52-93.63,97.15-93.63,97.26,42,97.26,93.63S269.68,309.63,215.94,309.63ZM341.77,122.37c-11.87,0-21.54-9.23-21.54-20.77s9.67-20.66,21.54-20.66,21.54,9.23,21.54,20.66S353.64,122.37,341.77,122.37Z"/></svg>